<?xml version="1.0" encoding="utf-8"?>
<!-- Generator: Adobe Illustrator 24.2.3, SVG Export Plug-In . SVG Version: 6.00 Build 0)  -->
<svg version="1.1" id="Layer_1" xmlns="http://www.w3.org/2000/svg" xmlns:xlink="http://www.w3.org/1999/xlink" x="0px" y="0px"
	 viewBox="0 0 1700.8 1700.8" style="enable-background:new 0 0 1700.8 1700.8;" xml:space="preserve">
<style type="text/css">
	.st0{fill:#010101;stroke:#000000;stroke-width:8;stroke-miterlimit:10;}
</style>
<g>
	<path class="st0" d="M1671.3,817.4c0-13.8-1.5-27.9-2.6-41.7c-3.3-39.1-9.7-77.5-18.6-115.5c-17.2-72.6-44-141.5-80.1-207.1
		c-41-73.4-91.6-139.3-152.7-197.4c-28-26.5-57.4-51-88.7-73.4c-80.8-57.7-169.1-99.4-265.2-125.1c-51.8-13.8-105.1-22.8-158.7-26.1
		c-6.7-0.4-13.4,0-20.1-1.5c-22.4,0-44.7,0-69.3-0.2c-1.1,0.3-2.2,0.7-3.3,0.7c-13,0-26.5,1.5-39.5,2.6c-36.9,3-73.4,8.9-109.5,17.5
		C585.9,68.2,512.9,96.9,444,136c-63,35.8-120.3,79.4-172.1,130.4c-17.1,17.1-33.9,35-49.5,53.6c-40.3,47.7-74.5,99.1-103.2,154.6
		c-22,42.8-40.2,87.5-54.4,133.7c-19,62.5-30.9,126.2-34.6,191.8c-0.4,7.9,0,15.7-1.5,23.5c0,17.2,0,34.7,0,51.8
		c0.3,1.5,0.7,2.6,0.7,4.1c0,11.2,1.2,22.4,1.9,33.2c2.3,31.6,6.7,62.9,12.7,94.2c20.5,104.7,60,201.9,118.1,291.3
		c43.2,66.3,94.9,124.8,154.9,176.2c47.7,40.6,99.1,75.2,154.6,104.3c63.3,33.1,130,57.4,200,73c51,11.2,102.8,17.9,155.3,19
		c1.5,0,3,0,4.5,0.7c12.7,0,25.7,0,38.4,0c1.5-0.7,2.6-0.7,4.1-0.7c19.3,0,38.3-1.4,57.7-3.3c35-3.4,69.2-9,103.5-16.8
		c75.2-17.1,146.4-44.6,213.8-81.9c59.9-33.1,114.7-73.4,164.6-120.3c27.2-25.7,52.5-52.8,76-81.9c37.7-46.5,69.7-96.4,96.5-149.7
		c21.3-42.4,38.8-86.4,52.2-132.2c17.9-59.6,28.7-120.7,32.4-182.9c0.4-7.4,0-15.2,1.5-22.7c0-19.4,0-38.4,0-57.4
		C1671.7,820,1671.3,818.9,1671.3,817.4z M839.8,1667.4c-444.3-5.6-811.2-370.6-804.9-828.8c6-444.7,368.8-804.5,816.5-804.5
		c450.3,0,816.5,365.8,816.5,816.5C1668.3,1300.1,1301.4,1672.6,839.8,1667.4z"/>
	<path class="st0" d="M504.7,756.5h677c0,0,27.4-1.7,34.2,22.6l79.7,442.9l0.4-413.2V615.9H504.7V756.5z"/>
	<path class="st0" d="M862.9,110c-416.4-5.9-749,327.5-752,734.2c-3,418.3,336,748,740.5,746.5c404.2,1.1,740.5-326.7,740.1-740.2
		C1591.5,440.8,1262.9,116,862.9,110z M1321.9,1243h-843c-20.7,0-35.1-16.8-35.1-37.5l-80.1-411.4c-11.9-40,21.7-38.2,21.7-38.2
		h75.9l-0.1-183.3c0-19.3,15.6-34.9,34.8-35.2h-0.4c14.1,0,25-25.7,25-35.6v-4c0-20.6,16.8-37.6,37.5-37.6h237.6
		c20.8,0,37.6,17,37.6,37.6v4c0,9.7,10.7,35.1,24.5,35.4h446.4c19.4,0,35.2,15.7,35.3,35.2l-0.2,633
		C1339.3,1205.4,1342.7,1242.8,1321.9,1243z"/>
</g>
</svg>
