<svg width="700" height="700" viewBox="0 0 700 700" fill="none" xmlns="http://www.w3.org/2000/svg">
<path d="M335.5 51.7C326.5 54.1 313.6 62.1 307.7 69.1C303.2 74.3 297.5 85.1 295.9 91.3C294.9 95.4 294.2 96.4 291.1 97.8C268 108 255.9 115 242 126.6C215.7 148.5 196 178.9 187.1 211.3C183 226.4 181.9 235.2 181 263C180 292.7 179 305.4 175.9 328C170.4 367.7 161.2 399.9 147.4 427.7C138.5 445.8 131.8 455.1 117.8 469.1C99.3001 487.6 90.5001 504.7 88.1001 527.1C85.1001 554.1 96.2001 576.5 118 587.5C130.3 593.7 125.7 593.4 213 594L293.5 594.5L294.2 600.5C296.8 623.8 314 642.7 338.4 649C348.3 651.5 351.7 651.5 361.5 649C372.9 646.1 381.3 641.5 388.9 634C398.8 624.3 404.5 612.9 405.9 600L406.5 594.5L487 594C575.9 593.4 569.2 593.9 583 587C594 581.5 604.3 569.6 609 557.2C616 538.9 612.1 511.5 599.5 490.1C596 484.2 591.2 478.4 583.7 470.7C566.7 453.6 560.7 445.1 550.6 423.9C532 385 520.9 330 519.4 269C518.8 242.9 517.2 228 513.5 213.8C504.7 180 485.1 149.1 458 126.6C444.1 115 432 108 408.9 97.8C405.8 96.4 405.1 95.4 404.1 91.3C402.5 85.1 396.8 74.3 392.3 69.1C388 64 378.3 57.1 371 53.9C366.2 51.9 363.8 51.5 351.5 51.4C343.8 51.2 336.6 51.4 335.5 51.7ZM367.6 145.5C412 152.7 447.3 185.1 458.7 228.8C460.8 237 461.3 242.1 462 262C464.6 329.5 472.1 375.9 487.6 419.5C501.8 459.3 518.7 486.7 544.8 512.4C550.5 517.9 554.4 525.3 555.4 532.2L556.1 537H350.1C182.5 537 144 536.8 144 535.7C144 532.5 147.2 522.6 149.3 519.2C150.7 517.2 153.6 513.7 155.9 511.5C176.2 492.1 192 468.7 204.3 440C224.8 392 235.6 336.3 237.5 268C237.9 256.2 238.8 242.4 239.6 237.5C246.3 196.4 275.3 162.9 315.7 149.5C331.9 144.2 350.5 142.7 367.6 145.5Z" fill="black"/>
</svg>
