<?xml version="1.0" encoding="utf-8"?>
<!-- Generator: Adobe Illustrator 24.2.3, SVG Export Plug-In . SVG Version: 6.00 Build 0)  -->
<svg version="1.1" id="Layer_1" xmlns="http://www.w3.org/2000/svg" xmlns:xlink="http://www.w3.org/1999/xlink" x="0px" y="0px"
	 viewBox="0 0 1700.8 1700.8" style="enable-background:new 0 0 1700.8 1700.8;" xml:space="preserve">
<style type="text/css">
	.st0{fill:#010101;stroke:#000000;stroke-width:8;stroke-miterlimit:10;}
</style>
<g>
	<path class="st0" d="M1671.4,816.3c0-13.8-1.5-27.9-2.6-41.7c-3.3-39.1-9.7-77.5-18.6-115.5c-17.2-72.6-44-141.5-80.1-207.1
		c-41-73.4-91.6-139.3-152.7-197.4c-28-26.5-57.4-51-88.7-73.4c-80.8-57.7-169.1-99.4-265.2-125.1C1011.7,42.3,958.4,33.3,904.8,30
		c-6.7-0.4-13.4,0-20.1-1.5c-22.4,0-44.7,0-69.3-0.2c-1.1,0.3-2.2,0.7-3.3,0.7c-13,0-26.5,1.5-39.5,2.6c-36.9,3-73.4,8.9-109.5,17.5
		C586,67,513,95.7,444.1,134.8c-63,35.8-120.3,79.4-172.1,130.4c-17.1,17.1-33.9,35-49.5,53.6c-40.3,47.7-74.5,99.1-103.2,154.6
		c-22,42.8-40.2,87.5-54.4,133.7c-19,62.5-30.9,126.2-34.6,191.8c-0.4,7.9,0,15.7-1.5,23.5c0,17.2,0,34.7,0,51.8
		c0.3,1.5,0.7,2.6,0.7,4.1c0,11.2,1.2,22.4,1.9,33.2c2.3,31.6,6.7,62.9,12.7,94.2c20.5,104.7,60,201.9,118.1,291.3
		c43.2,66.3,94.9,124.8,154.9,176.2c47.7,40.6,99.1,75.2,154.6,104.3c63.3,33.1,130,57.4,200,73c51,11.2,102.8,17.9,155.3,19
		c1.5,0,3,0,4.5,0.7c12.7,0,25.7,0,38.4,0c1.5-0.7,2.6-0.7,4.1-0.7c19.3,0,38.3-1.4,57.7-3.3c35-3.4,69.2-9,103.5-16.8
		c75.2-17.1,146.4-44.6,213.8-81.9c59.9-33.1,114.7-73.4,164.6-120.3c27.2-25.7,52.5-52.8,76-81.9c37.7-46.5,69.7-96.4,96.5-149.7
		c21.3-42.4,38.8-86.4,52.2-132.2c17.9-59.6,28.7-120.7,32.4-182.9c0.4-7.4,0-15.2,1.5-22.7c0-19.4,0-38.4,0-57.4
		C1671.8,818.9,1671.4,817.8,1671.4,816.3z M839.9,1666.3C395.6,1660.7,28.7,1295.7,35,837.5C41,392.8,403.8,33,851.5,33
		c450.3,0,816.5,365.8,816.5,816.5C1668.4,1299,1301.5,1671.5,839.9,1666.3z"/>
	<path class="st0" d="M474.8,1011.3c52.9,106.1,149.4,186.7,266,218.3c-30.1-55-51.5-132.2-64-218.3H474.8z"/>
	<path class="st0" d="M474.7,638.1h202c12.5-86.1,34-163.3,64-218.3C624.2,451.4,527.7,532,474.7,638.1z"/>
	<path class="st0" d="M663.7,824.7c0-39.1,1.7-78.2,5-116.4H447.3c-10.7,36.9-16.4,76-16.4,116.4s5.7,79.5,16.4,116.4h221.4
		C665.4,902.9,663.7,863.8,663.7,824.7z"/>
	<path class="st0" d="M850.4,405.2c-18.7,0-48.8,33.8-73.9,109.2c-12.1,36.3-21.8,78.2-28.9,123.7h205.6
		c-7.1-45.5-16.8-87.3-28.9-123.7C899.1,439,869,405.2,850.4,405.2z"/>
	<path class="st0" d="M862.1,108.9c-416.4-5.9-749,327.5-752,734.2c-3,418.3,336,748,740.5,746.5c404.2,1.1,740.5-326.7,740.1-740.2
		C1590.7,439.7,1262.1,114.9,862.1,108.9z M1192,1175.2l105.2,130.9l-74.3,59.7l-127.1-158.2l-43,63l-52.5,76.8L949,1163.3
		l-15.9-57.3l-39-140.1l-6.9-24.8L857.6,835L965,892.2l68,36.1l117.5,62.5l38.6,20.5l88.1,46.9l2.7,1.5l47.2,25.1l-157,63.2
		L1192,1175.2z M1313,985.7c-0.5,1.5-1,3-1.6,4.4c-3,8.4-6.3,16.6-9.8,24.8l-138.8-73.8h90.7c10.7-36.9,16.5-76,16.5-116.4
		s-5.8-79.4-16.5-116.4h-221.4c3.3,38.2,4.9,77.3,4.9,116.4c0,16.4-0.3,32.8-0.9,49.1l-69.4-36.9c0-4.1,0.1-8.1,0.1-12.2
		c0-39.9-1.7-79-5.1-116.4H739.1c-3.4,37.4-5.2,76.4-5.2,116.4c0,39.9,1.8,79,5.2,116.4h96.6l19.5,70.2H747.6
		c7.1,45.5,16.8,87.3,28.9,123.7c25.2,75.4,55.3,109.2,73.9,109.2c13.8,0,33.8-18.5,53.4-58.4l33.7,120.8c-28.3,5-57.4,7.8-87.1,7.8
		c-212,0-392.9-135.4-460.9-324.2c-0.7-1.4-1.2-2.9-1.6-4.4c-17.7-50.5-27.3-104.7-27.3-161.1s9.7-110.6,27.3-161.1
		c0.5-1.5,1-3,1.6-4.4c68-188.8,249-324.3,461-324.3s392.9,135.4,460.9,324.2c0.7,1.4,1.2,2.9,1.6,4.4
		c17.7,50.5,27.3,104.7,27.3,161.1S1330.6,935.2,1313,985.7z"/>
	<path class="st0" d="M960,419.8c30.1,55,51.5,132.2,64,218.3h202C1173.1,532,1076.6,451.4,960,419.8z"/>
</g>
</svg>
