<?xml version="1.0" encoding="utf-8"?>
<!-- Generator: Adobe Illustrator 24.0.2, SVG Export Plug-In . SVG Version: 6.00 Build 0)  -->
<svg version="1.1" id="Layer_1" xmlns="http://www.w3.org/2000/svg" xmlns:xlink="http://www.w3.org/1999/xlink" x="0px" y="0px"
	 viewBox="0 0 1700.79 1700.79" style="enable-background:new 0 0 1700.79 1700.79;" xml:space="preserve">
<style type="text/css">
	.st0{fill:#010101;stroke:#000000;stroke-width:8;stroke-miterlimit:10;}
	.st1{fill:#010101;}
</style>
<g>
	<g>
		<path class="st0" d="M822.93,1674.16c-1.87-0.75-3.36-0.37-5.23-0.75c-32.86-0.75-65.72-4.11-98.21-9.34
			c-43.69-7.09-86.26-17.18-128.08-31.37c-43.32-14.19-85.14-32.11-125.47-53.77c-50.78-26.89-98.58-59-143.02-95.97
			c-78.42-65.35-142.27-142.64-192.31-231.89c-36.22-64.6-63.11-133.31-80.66-205.38c-8.22-33.98-14.19-68.71-18.3-103.44
			c-4.48-39.21-5.97-78.79-4.48-118c2.61-81.4,16.8-160.94,42.94-238.24c32.86-96.71,82.15-184.09,147.5-262.51
			c51.53-61.99,111.28-115.39,178.49-159.82c90.74-60.12,190.07-100.82,296.87-121.73c31.37-5.97,62.73-9.71,94.47-12.7
			c31.37-2.61,62.73-3.36,94.1-1.87c105.3,3.73,206.5,26.89,303.21,69.83c78.42,35.1,149.74,81.03,213.97,138.16
			c70.2,62.36,127.71,134.8,173.26,216.95c42.2,76.55,71.32,157.58,87.75,243.09c5.23,27.26,8.96,54.89,11.2,82.9
			c2.61,28.75,3.73,57.88,2.99,86.63c-0.75,30.25-2.61,60.87-6.72,91.11c-6.35,49.66-17.18,98.58-32.49,146.01
			c-33.61,104.93-86.63,199.4-158.33,283.05c-77.3,90.37-169.9,160.57-277.07,211.35c-65.35,30.62-134.06,52.28-205.01,64.97
			c-30.25,5.23-60.87,8.59-91.49,10.83c-7.47,0.37-15.31,0-22.78,1.49C861.39,1674.16,841.97,1674.16,822.93,1674.16z M32.78,850.03
			c-0.75,454.07,367.44,818.15,814.79,818.15c222.18,0,414.86-77.3,573.94-232.64c162.44-158.7,245.33-354,246.83-581.03
			c2.61-456.69-366.69-820.39-814.42-821.89C396.86,30.75,32.03,401.93,32.78,850.03z"/>
		<path class="st1" d="M1593.28,850.77c1.87,407.02-330.1,745.34-747.95,742.72c-405.9-2.24-741.23-333.09-737.87-749.82
			c3.36-402.54,330.85-740.86,753.18-735.63C1266.92,112.53,1594.4,443.38,1593.28,850.77z M1512.63,846.67
			c0-9.71,0-19.04-0.37-28.75c-1.49-31.74-5.23-63.11-11.2-94.1c-2.24-12.32-4.11-25.02-8.96-36.97
			c-11.2-26.51-22.78-52.65-34.35-78.79c-5.97-13.44-10.83-28.01-19.79-39.96c-13.07-18.67-30.99-25.39-53.03-20.54
			c-33.98,7.84-67.59,15.68-101.57,23.53c-96.34,22.4-193.06,44.81-289.4,67.21c-7.47,1.87-13.44,5.23-17.92,10.83
			c-3.36,3.73-5.97,7.84-8.59,11.95c-12.7,22.4-19.79,47.05-24.27,72.44c-1.49,9.71-3.36,19.42-1.49,28.75
			c1.87,10.83,4.85,21.28,7.09,31.74c2.99,12.32,5.6,24.65,8.22,36.97c0.37,2.24,1.49,4.48-1.87,5.23
			c-14.19,3.73-28.01,7.09-42.57,1.87c-6.35-2.24-13.07-3.73-20.16-2.99c-7.84,0.75-15.68,0.75-23.53,0.75
			c-2.61,0-4.11,0.75-5.6,2.99c-8.59,12.7-17.92,25.02-25.39,38.46c-3.73,6.72-8.59,13.07-7.84,22.03
			c1.49,23.9,2.24,47.8,3.36,72.07c0.75,20.54,1.87,41.08,2.61,61.61c1.12,30.25,2.61,60.49,3.73,90.74c0,3.73,1.49,5.23,4.85,5.6
			c19.79,2.61,39.21,4.85,59,7.47c2.99,0.37,4.48-0.37,5.6-3.36c3.73-9.71,7.47-19.04,11.2-28.75c1.12-3.36,2.61-3.73,5.23-1.12
			c6.35,7.09,13.07,14.19,19.04,21.28c2.24,2.61,4.11,2.99,6.72,1.49c6.72-3.36,13.07-6.35,20.16-8.96
			c3.73-1.49,4.48-3.36,3.36-7.09c-4.85-16.43-4.85-32.86-1.87-49.66c5.97-32.49,21.66-58.63,50.78-75.06
			c25.39-14.56,53.03-20.16,82.15-19.04c31.37,1.12,54.15,16.43,69.08,43.69c8.22,14.56,13.07,30.25,17.18,46.68
			c0.75,3.73,2.24,4.48,5.97,3.73c25.02-5.97,50.41-11.95,75.43-17.55c34.73-8.22,69.83-16.06,104.56-24.27
			c5.97-1.49,5.97-1.49,4.85-7.47c-2.24-12.7-2.24-25.39-0.37-38.46c9.34-61.61,65.35-104.56,125.84-99.33
			c2.99,0.37,4.48-0.37,4.48-3.73C1512.63,861.98,1512.63,854.14,1512.63,846.67z M587.68,977.36c4.48-0.37,9.71,0.37,15.31,1.49
			c39.21,8.22,72.82,26.51,100.45,56.01c21.66,23.15,30.62,50.41,23.53,82.15c-0.37,2.24-0.75,4.48,0,6.72
			c3.36,9.34,7.09,18.3,10.46,27.63c1.12,2.61,2.24,2.61,4.11,1.12c2.61-1.87,5.6-3.73,8.22-5.6c2.24-1.49,3.73-1.49,4.85,1.12
			c2.99,5.23,6.35,10.83,9.71,16.06c1.49,2.24,2.61,2.61,3.73,0c3.36-6.35,6.72-12.7,10.08-19.04c5.23-9.71,5.23-10.08,14.19-3.36
			c1.87,1.12,3.36,2.24,5.6,0.75c9.71-5.23,19.42-10.46,29.13-15.68c1.49-0.75,2.24-1.87,2.24-3.73
			c-0.75-20.54-1.49-40.7-2.24-61.24c-0.75-17.92-1.12-36.22-1.87-54.15c-1.12-31.37-2.24-62.73-2.61-94.1
			c0-13.07-2.99-24.65-7.47-36.97c-4.48-12.7-11.2-22.78-23.15-29.13c-2.61-1.49-4.11-1.87-7.09-1.12
			c-13.44,3.73-25.02,11.2-35.85,19.79c-4.48,3.36-8.96,3.73-13.82,3.73c-2.99,0-3.73-1.12-3.36-4.11
			c1.49-14.94,2.61-29.87,4.11-45.18c1.49-17.55,3.36-35.1,4.85-52.65c1.87-17.92,3.73-35.85,4.85-53.77
			c1.12-13.07,3.36-26.51,2.99-39.58c0-8.22-3.73-13.82-10.83-17.92c-5.23-2.99-10.83-4.85-16.8-6.35
			c-17.55-4.48-35.47-8.96-53.03-13.07c-71.7-17.18-143.39-34.73-215.09-51.9c-46.68-11.2-93.35-22.4-140.03-33.98
			c-16.06-3.73-30.25,0-42.94,10.46c-10.83,8.96-17.55,20.54-22.78,33.23c-11.2,26.14-22.4,52.28-33.23,78.42
			c-4.48,10.46-10.08,20.16-12.32,30.99c-11.58,51.16-16.8,102.69-16.06,154.97c0,3.36,0,6.72,0.37,10.46
			c0,3.36,1.49,5.23,5.23,4.85c5.6-0.37,11.2,0.37,16.8,1.12c65.72,8.96,111.65,73.19,98.96,138.54c-0.75,4.48,0.37,5.97,4.48,7.09
			c63.11,14.94,125.84,30.25,188.95,45.56c5.6,1.49,5.6,1.49,7.09-4.48c5.23-19.79,11.58-38.84,23.53-56.01
			C545.11,987.07,563.03,976.99,587.68,977.36z M977.9,1080.43c-0.37,24.27,10.83,46.3,26.14,60.87
			c38.84,36.97,98.96,38.46,140.4,4.48c42.2-34.73,41.82-97.46,0-132.19c-33.23-27.26-81.78-31.74-118.75-10.08
			C995.82,1020.31,979.02,1045.7,977.9,1080.43z M628.75,1003.5c-34.73-0.37-57.13,6.72-76.55,21.66
			c-41.08,31.37-45.18,87.38-8.22,123.6c24.27,23.9,53.77,33.23,87.38,30.25c25.77-2.24,47.8-12.32,66.09-30.99
			c28.01-28.75,30.25-73.94,5.23-105.3C681.4,1016.2,652.65,1004.25,628.75,1003.5z M1400.97,990.81c0,5.6,0,11.2,1.12,16.43
			c7.47,36.97,28.75,62.36,63.85,76.55c3.36,1.49,4.85,0.37,5.97-2.99c3.73-10.83,7.09-21.66,11.2-32.49
			c1.49-4.11,0.37-5.6-3.36-7.09c-23.53-9.71-37.72-34.73-33.61-58.63c5.23-28.01,27.26-46.3,56.01-45.93c4.11,0,5.6-1.12,5.97-4.85
			c1.12-11.95,2.24-23.9,3.36-36.22c0.37-2.61-0.75-3.36-2.99-3.36c-6.35,0-13.07-0.37-19.42,0.37
			C1433.09,898.57,1399.85,946.74,1400.97,990.81z M197.08,893.34c-0.75,0-1.49,0-2.24,0c-7.47,0-7.47,0-7.09,7.47
			c1.12,10.83,2.24,21.66,3.36,32.49c0.37,3.36,1.49,4.48,4.85,4.48c21.66,2.24,37.71,13.44,45.93,33.61
			c10.46,25.39,0.75,53.4-22.78,67.59c-4.11,2.24-4.85,4.48-3.36,8.96c3.73,10.08,7.09,20.54,10.46,30.99
			c1.87,5.6,2.24,5.6,7.47,2.99c38.46-18.3,62.73-59.37,55.27-106.05C282.59,930.69,242.64,895.21,197.08,893.34z M840.1,811.94
			c0.37,0,0.37,0.37,0.75,0.37c0.37-0.75,0.75-1.12,1.12-1.87c31.74-60.87,63.11-121.73,94.85-182.97c1.49-2.99,1.12-4.48-1.12-6.35
			c-10.83-9.71-21.28-19.79-32.11-29.87c-4.11-3.73-8.22-7.47-13.07-11.95C873.71,657.35,856.91,734.64,840.1,811.94z
			 M837.12,719.33c0,0,0.37,0,0.37-0.37c1.12-13.07,2.61-26.51,3.73-39.58c1.87-21.28,3.73-42.57,5.6-63.85
			c1.87-22.4,5.23-44.44,3.73-66.84c-0.75-9.34-2.61-17.55-7.84-25.02c-1.87-2.99-2.99-2.99-5.23-0.37
			c-5.23,7.09-10.83,14.19-16.43,21.28c-1.49,1.87-1.87,4.11-1.49,6.72c1.12,10.08,2.24,20.16,3.36,30.25
			c1.87,19.04,3.73,38.09,5.6,57.13c1.87,19.79,4.11,39.58,5.97,59C835.62,704.77,836.37,712.24,837.12,719.33z M818.45,758.17
			c0.37,0,0.75,0,1.12,0c-1.49-8.96-2.99-18.3-4.85-27.26c-7.47-44.06-14.94-88.13-22.4-132.19c-0.37-2.99-1.12-4.48-4.48-1.87
			c-8.59,6.35-17.18,12.32-26.14,18.3c-2.99,1.87-2.99,3.73-1.87,6.72c8.22,19.04,16.43,38.46,24.65,57.51
			C796.04,705.52,807.24,731.65,818.45,758.17z"/>
		<path class="st1" d="M1409.94,729.41c0,2.61-2.61,2.24-4.48,2.99c-14.94,3.73-30.25,7.09-45.18,10.46
			c-38.09,8.96-76.18,17.55-114.27,26.51c-4.11,1.12-5.23-0.37-5.97-4.11c-11.2-47.8-22.03-95.59-33.61-143.39
			c-1.12-4.48,0-5.97,4.48-6.72c53.03-12.32,105.68-24.65,158.7-36.97c3.36-0.75,5.23-0.75,5.97,3.36
			c11.2,48.17,22.4,96.34,33.61,144.14C1409.56,726.8,1409.56,727.92,1409.94,729.41z"/>
		<path class="st1" d="M1216.88,773.48c0,3.36-2.24,2.99-4.11,3.36c-12.32,2.99-25.02,5.97-37.34,8.59
			c-39.58,9.34-79.16,18.3-119.12,27.63c-6.72,1.49-6.72,1.49-8.22-4.85c-11.2-47.8-22.03-95.22-33.23-143.02
			c-0.75-3.36,0-4.85,3.36-5.6c53.03-12.32,106.05-24.65,159.08-36.97c3.73-0.75,4.48,0.37,5.6,3.73
			c10.08,43.32,20.16,87.01,30.25,130.32C1214.64,762.27,1215.76,768.25,1216.88,773.48z M1154.89,642.04
			c-1.12-0.75-2.24-0.37-3.36,0c-39.21,9.34-78.79,18.3-118,27.63c-3.36,0.75-3.73,2.24-2.99,4.85
			c8.22,35.1,16.43,70.58,24.65,106.05c0.75,2.61,1.87,3.73,4.11,4.48c9.71,3.36,19.42,7.09,28.75,10.83
			c1.12,0.37,2.61,1.49,3.73,0.75c1.12-1.12,0.37-2.61,0-3.73c-2.99-12.32-5.6-25.02-8.59-37.34c-0.75-3.73-0.37-4.85,3.73-4.48
			c9.34,1.12,18.67,1.87,28.01,2.61c1.12,0,2.99,0.75,3.73-0.75c0.75-1.12-0.37-2.24-0.75-3.36c-4.48-9.71-9.34-19.04-13.82-28.38
			c-5.6-11.58-11.58-23.15-17.18-35.1c-0.37-0.75-1.49-1.87-0.37-2.99c0.75-1.12,1.87,0,2.99,0.37c0.75,0.37,1.12,0.37,1.49,0.75
			c21.66,10.08,42.94,19.79,64.6,29.87c7.09,3.36,14.19,6.35,21.66,9.71c0-2.24-1.12-3.36-1.87-4.85
			c-5.6-10.46-11.2-21.28-16.8-31.74c-1.49-2.61-1.12-4.48,1.12-6.35c6.72-5.97,13.82-11.95,20.54-18.3
			c1.12-1.12,2.61-1.87,3.36-3.73c-1.12,0-1.87-0.37-2.61-0.37c-8.22-0.75-16.8-1.12-25.02-1.87c-5.6-0.37-5.6-0.75-3.73-5.97
			C1152.65,648.01,1153.77,645.02,1154.89,642.04z"/>
		<path class="st1" d="M961.46,739.12c0.37-7.47,2.61-14.56,4.48-21.28c3.73-12.7,8.22-25.02,14.19-36.59
			c1.49-2.99,3.36-5.6,5.23-8.59c1.12-1.87,2.61-4.48,4.85-4.11c1.87,0.37,1.49,3.36,1.87,5.23c10.83,46.68,21.66,93.73,32.86,140.4
			c1.49,6.35,1.49,6.35-4.85,7.84c-10.08,2.24-20.54,4.48-30.62,7.09c-3.73,0.75-5.23,0-6.35-3.73
			c-7.09-26.89-14.19-53.77-21.28-80.66C961.84,742.86,961.46,740.99,961.46,739.12z"/>
		<path class="st1" d="M1402.1,572.58c4.48,1.12,8.59,3.36,11.95,7.09c7.09,7.84,10.83,17.92,14.94,27.26
			c14.94,34.73,29.87,69.46,45.18,103.81c1.49,3.73,1.12,5.23-2.99,5.97c-9.71,2.24-19.42,4.48-29.13,6.72
			c-7.84,1.87-7.84,1.87-9.34-5.6c-8.59-37.34-17.18-74.68-26.14-112.02c-2.24-9.71-4.48-19.79-7.09-29.5
			C1398.73,574.45,1397.99,572.21,1402.1,572.58z"/>
		<path class="st1" d="M843.09,889.24c6.35-7.09,13.07-14.19,18.3-21.66c6.72-9.34,15.31-13.44,26.14-15.68
			c19.42-3.73,19.42-4.48,37.72,3.73c0.75,0.37,1.12,0.75,2.99,1.87c-28.75,11.2-56.76,22.03-84.39,32.86
			C843.47,889.98,843.47,889.61,843.09,889.24z"/>
		<path class="st1" d="M492.83,624.11c-2.61,10.46-5.23,21.28-7.84,31.74c-9.34,37.72-18.3,75.8-27.63,113.52
			c-1.49,5.6-1.49,5.6-7.09,4.48c-51.9-12.7-104.18-25.02-156.09-37.72c-4.48-1.12-5.23-2.61-4.11-7.09
			c11.58-47.42,23.15-95.22,34.35-142.64c0.75-3.73,2.24-5.23,6.72-4.48c52.65,12.7,105.3,25.39,157.95,38.09
			C490.96,620.75,493.57,620.75,492.83,624.11z"/>
		<path class="st1" d="M685.51,670.04c-2.24,9.34-4.48,18.3-6.35,27.26c-9.34,39.21-19.04,78.42-28.75,118
			c-1.49,6.35-1.49,6.35-7.84,4.85c-51.9-12.7-103.81-25.02-155.71-37.72c-6.72-1.49-6.72-1.49-5.23-8.59
			c11.58-47.05,22.78-94.1,33.98-141.52c1.12-4.48,2.99-5.23,7.09-4.11c52.65,12.7,104.93,25.39,157.58,38.46
			C682.15,667.05,685.51,666.31,685.51,670.04z M589.54,774.6c1.87,0.37,2.99-0.75,4.11-1.12c9.34-4.11,18.67-8.22,28.01-11.95
			c9.71-4.11,9.71-4.11,14.94,4.85c2.61,4.11,4.85,8.22,7.84,13.44c0.75-2.24,0.75-2.99,1.12-3.73
			c7.84-31.74,15.31-63.48,23.15-95.22c0.75-3.73-1.12-4.11-3.36-4.48c-42.57-10.46-85.14-20.54-128.08-30.99
			c-2.99-0.75-4.48,0-5.97,2.24c-2.24,3.73-4.11,7.09-6.72,10.83c-2.61,3.36-1.12,4.48,2.61,5.6c16.43,3.73,32.49,7.84,48.92,11.58
			c4.85,1.12,5.23,1.49,2.61,5.6c-5.6,8.59-11.2,17.18-17.18,25.77c-1.12,1.49-2.61,2.99-2.61,5.23c17.18,0,34.35,0,51.53,0
			c5.23,0,5.23,0.37,3.36,4.85c-4.11,9.71-8.22,19.42-12.32,28.75C597.76,755.55,593.65,764.89,589.54,774.6z"/>
		<path class="st1" d="M263.18,728.29c-12.32-2.99-24.27-5.97-36.22-8.59c-3.36-0.75-2.24-2.99-1.12-4.85
			c5.6-13.44,11.58-26.89,17.18-40.33c10.08-23.9,20.54-48.17,30.62-72.07c2.99-7.47,7.09-14.19,13.07-19.42
			c2.99-2.61,6.35-4.48,10.08-5.97c4.85-1.49,5.6-0.75,4.48,4.11c-3.36,14.19-6.72,28.01-10.08,42.2
			c-8.22,33.23-16.06,66.84-24.27,100.08C266.16,725.68,266.54,729.04,263.18,728.29z"/>
		<path class="st1" d="M721.36,706.26c-1.12,21.28-2.61,42.57-3.73,63.85c-0.75,12.32-1.49,25.02-1.87,37.34
			c-0.37,8.22-0.75,16.06-1.12,24.27c-0.37,5.6-0.75,5.6-5.97,4.48c-10.46-2.61-20.91-5.23-31.74-7.47
			c-4.48-1.12-4.48-3.36-3.36-6.72c6.35-25.77,12.7-51.53,18.67-77.3c5.23-21.66,10.46-43.32,15.68-65.35
			c1.12-4.85,2.24-5.23,5.97-1.87c5.23,4.85,6.72,11.58,7.09,18.3C721.36,699.17,720.98,702.9,721.36,706.26L721.36,706.26z"/>
		<path class="st1" d="M789.32,862.35c0.75,0.37,1.49,0.37,1.87,0.75c5.23,5.23,12.32,8.96,14.19,17.18
			c0.75,3.36,4.48,6.72,2.61,9.34c-1.49,1.87-5.97-1.12-8.96-2.24c-12.32-3.73-24.27-7.84-36.59-11.95
			c-1.12-0.37-2.99-0.37-2.99-1.87s1.87-1.49,2.99-1.87c7.84-2.99,16.06-5.6,23.9-8.59C787.45,863.1,788.2,862.72,789.32,862.35z"/>
		<path class="st1" d="M1076.48,1129.34c-17.55-0.37-32.49-6.72-43.69-20.16c-16.06-19.42-13.44-47.42,5.6-64.6
			c19.04-17.18,47.8-19.42,69.46-5.6c32.49,20.54,30.62,65.35-4.11,83.65C1095.52,1127.48,1086.19,1129.72,1076.48,1129.34z"/>
		<path class="st1" d="M617.55,1140.17c-13.82-0.37-28.38-5.6-39.96-17.55c-19.04-19.42-17.18-48.92,3.73-66.09
			c24.27-20.16,63.11-16.8,83.27,7.09c17.18,20.54,13.44,49.66-8.59,65.35C645.18,1136.44,633.61,1140.17,617.55,1140.17z"/>
	</g>
</g>
</svg>
