<?xml version="1.0" encoding="utf-8"?>
<!-- Generator: Adobe Illustrator 24.3.0, SVG Export Plug-In . SVG Version: 6.00 Build 0)  -->
<svg version="1.1" id="Layer_1" xmlns="http://www.w3.org/2000/svg" xmlns:xlink="http://www.w3.org/1999/xlink" x="0px" y="0px"
	 viewBox="0 0 1700.8 1700.8" style="enable-background:new 0 0 1700.8 1700.8;" xml:space="preserve">
<style type="text/css">
	.st0{fill:#010101;stroke:#000000;stroke-width:8;stroke-miterlimit:10;}
	.st1{fill:#FFFFFF;}
</style>
<g>
	<g>
		<path class="st0" d="M884.7,28.5c6.7,1.5,13.4,1.1,20.1,1.5c53.6,3.3,106.9,12.3,158.7,26.1c96.1,25.7,184.4,67.4,265.2,125.1
			c31.3,22.4,60.7,46.9,88.7,73.4c61.1,58.1,111.7,124,152.7,197.4c36.1,65.6,62.9,134.5,80.1,207.1c8.9,38,15.3,76.4,18.6,115.5
			c1.1,13.8,2.6,27.9,2.6,41.7c0,1.5,0.4,2.6,0.8,4.1c0,19,0,38,0,57.4c-1.5,7.5-1.1,15.3-1.5,22.7c-3.7,62.2-14.5,123.3-32.4,182.9
			c-13.4,45.8-30.9,89.8-52.2,132.2c-26.8,53.3-58.8,103.2-96.5,149.7c-23.5,29.1-48.8,56.2-76,81.9
			c-49.9,46.9-104.7,87.2-164.6,120.3c-67.4,37.3-138.6,64.8-213.8,81.9c-34.3,7.8-68.5,13.4-103.5,16.8
			c-19.4,1.9-38.4,3.3-57.7,3.3c-1.5,0-2.6,0-4.1,0.7c-12.7,0-25.7,0-38.4,0c-1.5-0.7-3-0.7-4.5-0.7c-52.5-1.1-104.3-7.8-155.3-19
			c-70-15.6-136.7-39.9-200-73c-55.5-29.1-106.9-63.7-154.6-104.3c-60-51.4-111.7-109.9-154.9-176.2
			c-58.1-89.4-97.6-186.6-118.1-291.3c-6-31.3-10.4-62.6-12.7-94.2c-0.7-10.8-1.9-22-1.9-33.2c0-1.5-0.4-2.6-0.7-4.1
			c0-17.1,0-34.6,0-51.8c1.5-7.8,1.1-15.6,1.5-23.5c3.7-65.6,15.6-129.3,34.6-191.8c14.2-46.2,32.4-90.9,54.4-133.7
			c28.7-55.5,62.9-106.9,103.2-154.6c15.6-18.6,32.4-36.5,49.5-53.6c51.8-51,109.1-94.6,172.1-130.4c68.9-39.1,141.9-67.8,219-85.7
			c36.1-8.6,72.6-14.5,109.5-17.5c13-1.1,26.5-2.6,39.5-2.6c1.1,0,2.2-0.4,3.3-0.7C840,28.5,862.3,28.5,884.7,28.5z M1668,849.5
			C1668,398.8,1301.8,33,851.5,33C403.8,33,41,392.8,35,837.5c-6.3,458.2,360.6,823.2,804.9,828.8
			C1301.5,1671.5,1668.4,1299,1668,849.5z"/>
		<path class="st0" d="M851.5,1589.6C447,1591.1,108,1261.4,111,843.1c3-406.7,335.6-740.1,752-734.2c400,6,728.6,330.8,728.6,740.5
			C1592,1262.9,1255.7,1590.7,851.5,1589.6z M385.9,880.4c0,112.5,0,225.3,0,337.8c0,31.7,23.5,55.5,55.5,55.5
			c176.2,0,352.4,0,528.9,0c4.5,0,8.6-0.4,12.7-1.5c25.7-6,42.8-27.6,42.8-54.4c0-224.6,0-449.2,0-673.5c0-0.7,0-1.9,0-2.6
			c-0.7-29.8-24.6-53.3-54.4-53.3c-29,0-58.1,0-87.2,0c-4.8,0-7.1-1.5-9.3-6c-8.6-17.1-22.3-27.6-42.1-30.2
			c-10.8-1.5-21.6-0.4-32-0.7c-6,0-6,0-5.2-5.6c2.6-19,0-36.9-8.9-53.6c-17.1-33.5-52.5-52.9-90.5-48.8c-22.3,2.2-41,11.5-56.2,27.6
			c-20.1,21.2-27.9,46.9-23.8,76c0.7,4.1-0.7,4.8-4.5,4.8c-8.6,0-17.1-0.4-25.3,0c-22.7,0.7-39.9,11.2-49.9,31.7
			c-1.9,3.7-3.7,4.8-7.8,4.8c-29,0-58.1,0.4-87.2,0c-32.8-0.7-55.9,27.2-55.5,55.5C386.3,655.8,385.9,768.3,385.9,880.4z
			 M1244.1,866.6c0-69.7,0-139.3,0-208.6c0-13.8,0-13.8,13.8-13.8c4.1,0,8.2-0.4,11.9,1.5c8.2,3.7,11.2,10.4,11.2,19.4
			c0,47.7,0,95,0,142.7c0,10.8,7.4,18.3,17.5,18.3c10.4,0,17.9-7.5,17.9-18.3c0-49.2,0.4-98.7,0-147.9c-0.4-26.1-21.2-48-46.9-51
			c-6.7-0.7-13-0.4-19.7-0.7c-6,0-6,0-6-6c0-10.1,0-20.1,0-30.5c0-16.8-5.2-31.7-15.3-44.7c-1.9-2.2-2.6-4.5-2.6-7.5
			c0-12.3,0-24.6,0-36.5c0-16-4.8-30.5-16.8-41.4c-17.1-16-37.3-19.7-58.8-10.8s-32.4,26.5-33.2,49.9c-0.4,12.7,0,25,0,37.6
			c0,3.3-0.7,6.3-3,8.9c-10.1,13-14.9,27.6-14.9,44c0,169.1,0,337.8,0,506.9c0,12.7,1.1,25,3.3,37.3c7.1,39.5,23.5,74.5,48.1,106.2
			c2.2,3,3.3,6,3.3,9.3c0,8.2,0,16.4,0,24.6c0,2.6,0,5.2,1.1,7.4c3.3,7.4,11.6,12.3,19.4,10.8c8.9-1.5,14.9-8.6,15.3-17.5
			c0.4-8.9,0-17.5,0-26.4c0-3,0.7-5.6,3-8.2c34.3-43.9,51.8-93.9,51.8-150.1C1244.1,1003.3,1244.1,934.8,1244.1,866.6z"/>
		<path class="st0" d="M989.7,880.8c0,111.7,0,223.9,0.4,335.6c0,12.3-8.6,20.9-20.9,20.9c-175.4-0.4-350.9-0.4-526,0
			c-14.5,0-21.2-10.4-21.2-21.2c0-223.5,0-447.3,0-670.8c0-13.8,7.5-21.6,21.6-21.6c27.6,0,54.8,0,82.3,0c6,0,6.3,0.4,6.3,6.3
			c0,8.6,0,17.1,0,26.1c0,3.3-1.1,4.8-4.8,4.8c-15.6,0-31.3,0-46.9,0c-14.5,0-21.6,7.1-21.6,21.2c0,199.3,0,398.6,0,597.8
			c0,8.2,2.2,14.5,9.7,18.6c1.9,1.1,4.1,1.9,6.3,1.9c1.5,0,3.4,0,4.8,0c150.9,0,301.7,0,452.2,0c6.3,0,11.9-0.7,16.4-5.6
			c2.6-3,4.5-6.3,4.5-10.4c0-2.2,0-4.8,0-7.1c0-197.8,0-395.6,0-593c0-17.9-6-23.5-23.5-23.5c-14.5,0-29,0-44,0
			c-4.1,0-5.6-1.5-5.2-5.6c0.4-8.9,0.4-17.5,0-26.5c0-3.7,1.1-5.2,5.2-5.2c28.3,0,56.2,0,84.5,0c11.5,0,20.1,8.6,20.1,20.9
			C989.7,656.5,989.7,768.6,989.7,880.8z"/>
		<path class="st0" d="M705.9,560.8c-44,0-88.3,0-132.2,0c-6.3,0-6.3,0-6.3-6.3c0-15.6,0-31.3,0-46.9c0-11.9,7.5-19.4,19.4-19.4
			c17.9,0,35.8,0,53.6,0c11.2,0,18.6-5.6,20.5-14.9c1.1-4.8-0.4-9.3-3-13.8c-8.2-14.9-9.7-30.5-2.6-46.6
			c8.6-20.1,24.2-31.7,46.2-33.9c32.8-3.4,60.3,23.8,59.6,56.2c-0.4,9.3-3.3,17.5-7.8,25.7c-5.2,10.1-1.5,21.2,8.2,25.3
			c3.7,1.5,7.5,1.9,11.5,1.9c17.1,0,34.6,0,51.8,0c11.5,0,19.4,6.7,19.7,18.3c0.4,16.8,0,33.5,0.4,50.7c0,3.7-1.9,4.1-4.8,4.1
			c-13.8,0-27.6,0-41.7,0C767.3,560.8,736.8,560.8,705.9,560.8z M688,433c0,10.1,7.5,17.9,17.5,17.9c9.7,0,17.9-8.2,17.9-17.9
			c0-10.1-7.8-17.9-17.9-17.9C695.4,415.5,688.4,422.6,688,433z"/>
		<path class="st0" d="M705.9,983.2c-38.7,0-77.5,0-116.2,0c-2.6,0-5.2,0-7.5-0.7c-10.1-2.2-15.6-9.7-14.9-20.1
			c0.7-8.9,7.8-16,17.5-16.8c1.1,0,2.2,0,3,0c78.6,0,157.2,0,235.8,0c10.4,0,17.9,5.2,20.1,13.8c3.3,12.7-5.6,23.8-19,23.8
			c-16.4,0-32.4,0-48.8,0C752.8,983.2,729.3,983.2,705.9,983.2z"/>
		<path class="st0" d="M706.2,837.5c-39.5,0-78.6,0-118.1,0c-7.1,0-13-1.9-17.1-7.5c-8.2-11.2-2.2-26.5,11.2-29.4
			c2.6-0.4,4.8-0.7,7.5-0.7c77.8,0,155.3,0,233.2,0c8.6,0,15.6,2.2,19.7,10.4c6.3,12.3-1.9,26.5-15.6,27.2c-4.5,0.4-8.9,0-13.4,0
			C777.4,837.5,741.6,837.5,706.2,837.5z"/>
		<path class="st0" d="M705.9,910.2c-40.2,0-80.1,0-120.3,0c-9.3,0-17.1-7.1-18.3-15.6c-1.1-10.4,4.5-18.6,14.2-20.9
			c1.9-0.4,3.7-0.4,5.2-0.4c79.3,0,158.7,0,238.4,0c10.4,0,18.3,6.7,19.4,16.4c1.1,8.6-4.8,17.5-13.4,19.7c-2.2,0.7-4.8,0.7-7.1,0.7
			C784.8,910.2,745.3,910.2,705.9,910.2z"/>
		<path class="st0" d="M742,680c27.6,0,54.8,0,82.3,0c8.2,0,14.5,3.3,18.3,10.4c5.2,10.8-0.7,23.5-12.3,26.5
			c-2.6,0.7-5.2,0.7-7.8,0.7c-53.3,0-106.5,0-159.8,0c-2.2,0-4.8,0-7.1-0.7c-9.7-1.9-16-10.1-15.3-19.7c0.7-9.3,8.2-16.8,17.9-17.5
			c4.5-0.4,8.9,0,13.4,0C694.7,680,718.5,680,742,680z"/>
		<path class="st0" d="M567.3,699c0-10.8,7.8-19,18.3-19c10.1,0,18.6,8.2,18.6,18.3c0,10.8-8.2,19.4-18.6,19.4
			C575.5,717.6,567.3,709.4,567.3,699z"/>
		<path class="st0" d="M1135,849.8c0-66.3,0-132.2,0-198.5c0-7.1,0-7.1,7.1-7.1c19.7,0,39.5,0,58.8,0c7.4,0,7.4,0,7.4,7.5
			c0,78.2,0,156.8,0,235c0,53.6,0,107.7,0,161.3c0,7.8,0,7.8-7.4,7.8c-20.1,0-39.9,0-60,0c-6,0-6,0-6-6
			C1135,983.2,1135,916.5,1135,849.8z"/>
		<path class="st0" d="M1171.8,608.1c-10.4,0-20.9,0-31.3,0c-4.5,0-5.6-1.5-5.6-5.6c0.4-10.4,0-21.2,0-31.7
			c0-19.4,15.3-34.3,35.8-35.8c16.8-1.1,34.3,13,36.9,30.5c1.9,13,0.4,26.1,0.7,39.1c0,3-1.9,3.3-4.5,3.3
			C1193.1,608.1,1182.3,608.1,1171.8,608.1z"/>
		<path class="st0" d="M1171.8,1091.2c9.7,0,19.4,0,29.1,0c6.7,0,6.7,0,6,6.7c-3.3,25.7-11.2,50.3-23.8,73
			c-2.6,4.5-5.2,8.9-8.2,13.4s-3.3,4.5-6,0c-16-23.8-26.1-49.9-30.9-78.2c-0.4-2.6-0.7-5.6-1.1-8.6c-0.7-6.3-0.7-6.7,6-6.7
			C1152.1,1091.2,1161.8,1091.2,1171.8,1091.2z"/>
		<path class="st0" d="M1189.7,488.2c0,3.4,0,6.7,0,9.7c0,2.2-1.1,3.4-3.3,2.6c-10.1-2.2-20.1-2.2-30.2,0c-2.6,0.4-3.7-0.7-3.7-3.4
			c0-6-0.4-11.9,0-17.9c0.7-10.1,9.3-17.9,19-17.5c10.1,0.4,17.5,8.6,17.5,19.4C1189.7,483.7,1189.7,485.9,1189.7,488.2z"/>
		<circle class="st0" cx="821.5" cy="873.3" r="577.4"/>
		<g>
			<polygon class="st1" points="1279.9,1059.7 1279.9,1059.7 1277.2,1058.2 1189.1,1011.3 1189.1,1011.3 1150.5,990.8 1033,928.3 
				1033,928.3 965,892.2 965,892.2 857.6,835 887.2,941.1 887.2,941.1 894.1,965.9 933.1,1106 933.1,1106 949,1163.3 1000.3,1347.4 
				1052.8,1270.6 1052.8,1270.6 1095.8,1207.6 1222.9,1365.8 1297.2,1306.1 1192,1175.2 1192,1175.2 1170.1,1148 1327.1,1084.8 			
				"/>
			<path class="st1" d="M850.4,1244.2c-18.6,0-48.7-33.8-73.9-109.2c-12.1-36.4-21.8-78.2-28.9-123.7h107.6l-19.5-70.2h-96.6
				c-3.4-37.4-5.2-76.5-5.2-116.4c0-40,1.8-79,5.2-116.4h222.6c3.4,37.4,5.1,76.5,5.1,116.4c0,4.1-0.1,8.1-0.1,12.2l69.4,36.9
				c0.6-16.3,0.9-32.7,0.9-49.1c0-39.1-1.6-78.2-4.9-116.4h221.4c10.7,37,16.5,76,16.5,116.4c0,40.4-5.8,79.5-16.5,116.4h-90.7
				l138.8,73.8c3.5-8.2,6.8-16.4,9.8-24.8c0.6-1.4,1.1-2.9,1.6-4.4c17.6-50.5,27.3-104.7,27.3-161.1c0-56.4-9.6-110.6-27.3-161.1
				c-0.4-1.5-0.9-3-1.6-4.4c-68-188.8-248.9-324.2-460.9-324.2S457.5,470.4,389.5,659.2c-0.6,1.4-1.1,2.9-1.6,4.4
				c-17.6,50.5-27.3,104.7-27.3,161.1c0,56.4,9.6,110.6,27.3,161.1c0.4,1.5,0.9,3,1.6,4.4c68,188.8,248.9,324.2,460.9,324.2
				c29.7,0,58.8-2.8,87.1-7.8l-33.7-120.8C884.2,1225.7,864.2,1244.2,850.4,1244.2z M1226,638.1h-202
				c-12.5-86.1-33.9-163.3-64-218.3C1076.6,451.4,1173.1,532,1226,638.1z M776.5,514.4c25.1-75.4,55.2-109.2,73.9-109.2
				c18.6,0,48.7,33.8,73.9,109.2c12.1,36.4,21.8,78.2,28.9,123.7H747.6C754.7,592.6,764.4,550.7,776.5,514.4z M740.7,419.8
				c-30,55-51.5,132.2-64,218.3h-202C527.7,532,624.2,451.4,740.7,419.8z M430.9,824.7c0-40.4,5.7-79.5,16.4-116.4h221.4
				c-3.3,38.2-5,77.3-5,116.4c0,39.1,1.7,78.2,5,116.4H447.3C436.6,904.2,430.9,865.1,430.9,824.7z M474.8,1011.3h202
				c12.5,86.1,33.9,163.3,64,218.3C624.2,1198,527.7,1117.4,474.8,1011.3z"/>
		</g>
	</g>
</g>
</svg>
