<?xml version="1.0" encoding="utf-8"?>
<!-- Generator: Adobe Illustrator 24.0.0, SVG Export Plug-In . SVG Version: 6.00 Build 0)  -->
<svg version="1.1" id="Layer_1" xmlns="http://www.w3.org/2000/svg" xmlns:xlink="http://www.w3.org/1999/xlink" x="0px" y="0px"
	 viewBox="0 0 512 512" style="enable-background:new 0 0 512 512;" xml:space="preserve">
<style type="text/css">
	.st0{fill:#FFFFFF;stroke:#000000;stroke-width:20;stroke-miterlimit:10;}
	.st1{stroke:#000000;stroke-miterlimit:10;}
	.st2{fill:none;stroke:#FFFFFF;stroke-width:8;stroke-linecap:round;stroke-linejoin:round;stroke-miterlimit:10;}
	.st3{fill:#FFFFFF;stroke:#000000;stroke-width:25;stroke-miterlimit:10;}
	.st4{fill:none;stroke:#000000;stroke-width:25;stroke-linecap:round;stroke-linejoin:round;stroke-miterlimit:10;}
</style>
<path id="XMLID_1_" d="M256.66,12.32c-19.55,0.14-35.27,15.09-35.11,33.4l70.8-0.51C292.19,26.9,276.21,12.17,256.66,12.32z"/>
<path id="XMLID_56_" d="M260.87,501.14c40.67-0.29,73.38-30.08,73.05-66.53l-147.29,1.06C186.96,472.12,220.2,501.43,260.87,501.14z
	"/>
<path id="XMLID_54_" class="st0" d="M433.32,378.44c-15.47-7.03-52.45-36.13-54.38-53.58c-3-27.1-4-54.77-5.99-82.02
	c-1.47-20.21-3-40.41-4.72-60.59c-1.75-20.5-2.19-43.3-7.29-62.84c-7.59-29.09-39.6-52.97-60.21-62.25
	c-6.37-2.87-12.43-4.9-17.8-6.37c-0.52-0.14-1.03-0.25-1.56-0.33c-3.17-0.51-14.92-2.22-28.56-2.13l0,0
	c-14.72,0.11-26.72,2.29-28.54,2.64c-0.16,0.03-0.31,0.07-0.47,0.11c-5.46,1.55-11.65,3.71-18.16,6.76
	c-20.45,9.58-52.03,33.92-59.09,63.11c-4.75,19.61-4.79,42.41-6.17,62.94c-1.36,20.2-2.52,40.42-3.63,60.65
	c-1.5,27.28-2.01,54.95-4.52,82.1c-1.62,17.47-39.37,53.32-54.71,60.58c-14.18,6.71-15.66,28.27-2.26,36.18
	c11.35,8.68,88.2,14.91,181.32,14.24c93.12-0.67,169.85-8,181.04-16.85C450.88,412.68,447.62,384.94,433.32,378.44z"/>
<g>
	<path class="st1" d="M314,273.9c-0.15,0-0.29,0-0.44-0.01c-5.57-0.24-9.89-4.99-9.65-10.62c2.43-57.12-8.79-105.15-8.91-105.63
		c-1.3-5.47,2.04-10.97,7.46-12.28c5.43-1.33,10.87,2.06,12.17,7.53c0.49,2.07,11.99,51.31,9.44,111.26
		C323.84,269.62,319.37,273.9,314,273.9z"/>
	<path class="st1" d="M311.82,320.12c-0.62,0-1.25-0.06-1.88-0.18c-5.48-1.04-9.08-6.37-8.05-11.9c1.59-8.52,0.97-16.05,0.97-16.13
		c-0.51-5.6,3.58-10.56,9.13-11.08c5.58-0.49,10.47,3.61,10.98,9.21c0.04,0.42,0.91,10.35-1.23,21.77
		C320.81,316.7,316.58,320.12,311.82,320.12z"/>
</g>
<path class="st2" d="M211.36,445.1c0,0,2.13,12.44,8.56,20.99c6.42,8.55,16.09,16.44,30.43,19.89"/>
</svg>
