<svg width="512" height="512" viewBox="0 0 512 512" fill="none" xmlns="http://www.w3.org/2000/svg">
<path d="M368 304H336V320H368V304Z" fill="black"/>
<path d="M104 400H88V416H104V400Z" fill="black"/>
<path d="M400 400H384V416H400V400Z" fill="black"/>
<path d="M490.48 268.592L451.576 196.592C449.518 192.784 446.469 189.603 442.751 187.386C439.033 185.169 434.785 183.999 430.456 184H320.968L67.856 66.032C66.9052 65.5862 65.8755 65.3334 64.8264 65.288C63.7773 65.2427 62.7297 65.4059 61.744 65.768C60.7558 66.1266 59.8479 66.6765 59.0724 67.3861C58.2968 68.0958 57.6687 68.9514 57.224 69.904L43.704 98.944C43.2565 99.898 43.0019 100.931 42.9549 101.984C42.9078 103.036 43.0692 104.088 43.4297 105.078C43.7902 106.068 44.3428 106.978 45.0557 107.754C45.7687 108.53 46.6279 109.157 47.584 109.6L48 109.768V152C48 154.122 48.8429 156.157 50.3431 157.657C51.8434 159.157 53.8783 160 56 160C57.5823 160 59.129 160.469 60.4446 161.348C61.7602 162.227 62.7855 163.477 63.391 164.939C63.9965 166.4 64.155 168.009 63.8463 169.561C63.5376 171.113 62.7757 172.538 61.6569 173.657C60.538 174.776 59.1126 175.538 57.5607 175.846C56.0089 176.155 54.4003 175.997 52.9385 175.391C51.4767 174.786 50.2273 173.76 49.3482 172.445C48.4692 171.129 48 169.582 48 168H32C32.0008 172.4 33.2111 176.715 35.4986 180.473C37.786 184.231 41.0626 187.289 44.9702 189.311C48.8778 191.333 53.2661 192.242 57.6554 191.938C62.0447 191.635 66.2661 190.131 69.8583 187.59C73.4504 185.049 76.2751 181.57 78.0235 177.533C79.772 173.495 80.3769 169.055 79.7723 164.697C79.1676 160.339 77.3766 156.231 74.5949 152.822C71.8133 149.413 68.1481 146.835 64 145.368V117.224L272 214.176V328H24C21.8783 328 19.8434 328.843 18.3431 330.343C16.8429 331.843 16 333.878 16 336V400C16 404.243 17.6857 408.313 20.6863 411.314C23.6869 414.314 27.7565 416 32 416H48.72C50.6003 427.18 56.3815 437.332 65.0372 444.653C73.6929 451.975 84.6631 455.992 96 455.992C107.337 455.992 118.307 451.975 126.963 444.653C135.619 437.332 141.4 427.18 143.28 416H344.72C346.6 427.18 352.381 437.332 361.037 444.653C369.693 451.975 380.663 455.992 392 455.992C403.337 455.992 414.307 451.975 422.963 444.653C431.619 437.332 437.4 427.18 439.28 416H472C478.365 416 484.47 413.471 488.971 408.971C493.471 404.47 496 398.365 496 392V288.864C496.015 281.733 494.108 274.73 490.48 268.592V268.592ZM437.496 204.2L474.136 272H352V200H430.456C431.899 200 433.315 200.39 434.555 201.13C435.794 201.869 436.81 202.93 437.496 204.2V204.2ZM68.352 83.912L304 193.744V211.448L61.6 98.448L68.352 83.912ZM288 221.64L304 229.096V328H288V221.64ZM96 440C89.671 440 83.4841 438.123 78.2218 434.607C72.9594 431.091 68.8579 426.093 66.4359 420.246C64.0138 414.399 63.3801 407.965 64.6149 401.757C65.8496 395.55 68.8973 389.848 73.3726 385.373C77.8479 380.897 83.5497 377.85 89.7571 376.615C95.9645 375.38 102.399 376.014 108.246 378.436C114.093 380.858 119.091 384.959 122.607 390.222C126.123 395.484 128 401.671 128 408C128 416.487 124.629 424.626 118.627 430.627C112.626 436.629 104.487 440 96 440ZM96 360C84.6676 360.021 73.7073 364.047 65.0558 371.366C56.4042 378.686 50.6182 388.828 48.72 400H32V344H304V400H143.28C141.382 388.828 135.596 378.686 126.944 371.366C118.293 364.047 107.332 360.021 96 360V360ZM392 440C385.671 440 379.484 438.123 374.222 434.607C368.959 431.091 364.858 426.093 362.436 420.246C360.014 414.399 359.38 407.965 360.615 401.757C361.85 395.55 364.897 389.848 369.373 385.373C373.848 380.897 379.55 377.85 385.757 376.615C391.965 375.38 398.399 376.014 404.246 378.436C410.093 380.858 415.091 384.959 418.607 390.222C422.123 395.484 424 401.671 424 408C424 416.487 420.629 424.626 414.627 430.627C408.626 436.629 400.487 440 392 440ZM472 400H439.28C437.4 388.82 431.619 378.668 422.963 371.347C414.307 364.025 403.337 360.008 392 360.008C380.663 360.008 369.693 364.025 361.037 371.347C352.381 378.668 346.6 388.82 344.72 400H320V200H336V280C336 282.122 336.843 284.157 338.343 285.657C339.843 287.157 341.878 288 344 288H479.88C479.88 288.288 480 288.568 480 288.864V304H448C443.757 304 439.687 305.686 436.686 308.686C433.686 311.687 432 315.757 432 320V336C432 340.243 433.686 344.313 436.686 347.314C439.687 350.314 443.757 352 448 352H480V368H456V384H480V392C480 394.122 479.157 396.157 477.657 397.657C476.157 399.157 474.122 400 472 400ZM480 320V336H448V320H480Z" fill="black"/>
<path d="M86.528 312H185.472C187.101 316.676 190.145 320.73 194.182 323.598C198.219 326.467 203.048 328.008 208 328.008C212.952 328.008 217.781 326.467 221.818 323.598C225.855 320.73 228.899 316.676 230.528 312H248C250.122 312 252.157 311.157 253.657 309.657C255.157 308.157 256 306.122 256 304V272C256.002 269.884 255.165 267.853 253.672 266.352L237.744 250.352C237 249.606 236.116 249.014 235.143 248.61C234.169 248.207 233.126 247.999 232.072 248H218.96L165.208 201.928C163.758 200.684 161.911 200 160 200H89.888C85.4283 199.984 81.0534 201.219 77.2597 203.563C73.4659 205.908 70.4049 209.268 68.424 213.264L51.056 248H32C27.7565 248 23.6869 249.686 20.6863 252.686C17.6857 255.687 16 259.757 16 264V304C16 306.122 16.8429 308.157 18.3431 309.657C19.8434 311.157 21.8783 312 24 312H41.472C43.1012 316.676 46.1452 320.73 50.182 323.598C54.2187 326.467 59.048 328.008 64 328.008C68.952 328.008 73.7813 326.467 77.818 323.598C81.8548 320.73 84.8988 316.676 86.528 312ZM208 312C206.418 312 204.871 311.531 203.555 310.652C202.24 309.773 201.214 308.523 200.609 307.061C200.003 305.6 199.845 303.991 200.154 302.439C200.462 300.887 201.224 299.462 202.343 298.343C203.462 297.224 204.887 296.462 206.439 296.154C207.991 295.845 209.6 296.004 211.061 296.609C212.523 297.215 213.773 298.24 214.652 299.555C215.531 300.871 216 302.418 216 304C216 306.122 215.157 308.157 213.657 309.657C212.157 311.157 210.122 312 208 312ZM194.4 248H136V216H157.04L194.4 248ZM82.736 220.424C83.3955 219.092 84.4152 217.971 85.6793 217.189C86.9435 216.407 88.4015 215.995 89.888 216H120V248H68.944L82.736 220.424ZM32 264H228.752L240 275.304V296H230.528C228.899 291.324 225.855 287.27 221.818 284.402C217.781 281.534 212.952 279.992 208 279.992C203.048 279.992 198.219 281.534 194.182 284.402C190.145 287.27 187.101 291.324 185.472 296H86.528C84.8988 291.324 81.8548 287.27 77.818 284.402C73.7813 281.534 68.952 279.992 64 279.992C59.048 279.992 54.2187 281.534 50.182 284.402C46.1452 287.27 43.1012 291.324 41.472 296H32V264ZM64 312C62.4177 312 60.871 311.531 59.5554 310.652C58.2398 309.773 57.2145 308.523 56.609 307.061C56.0035 305.6 55.845 303.991 56.1537 302.439C56.4624 300.887 57.2243 299.462 58.3431 298.343C59.462 297.224 60.8874 296.462 62.4393 296.154C63.9911 295.845 65.5997 296.004 67.0615 296.609C68.5233 297.215 69.7727 298.24 70.6518 299.555C71.5308 300.871 72 302.418 72 304C72 306.122 71.1571 308.157 69.6569 309.657C68.1566 311.157 66.1217 312 64 312V312Z" fill="black"/>
</svg>
